<?xml version="1.0" encoding="UTF-8" standalone="no"?>
<svg
   xmlns:dc="http://purl.org/dc/elements/1.1/"
   xmlns:cc="http://creativecommons.org/ns#"
   xmlns:rdf="http://www.w3.org/1999/02/22-rdf-syntax-ns#"
   xmlns:svg="http://www.w3.org/2000/svg"
   xmlns="http://www.w3.org/2000/svg"
   xmlns:sodipodi="http://sodipodi.sourceforge.net/DTD/sodipodi-0.dtd"
   xmlns:inkscape="http://www.inkscape.org/namespaces/inkscape"
   version="1.0"
   width="400px"
   height="400px"
   viewBox="0 0 4000 4000"
   preserveAspectRatio="xMidYMid meet"
   id="svg94"
   sodipodi:docname="logo_400x400.svg"
   inkscape:version="0.92.4 (5da689c313, 2019-01-14)">
  <metadata
     id="metadata100">
    <rdf:RDF>
      <cc:Work
         rdf:about="">
        <dc:format>image/svg+xml</dc:format>
        <dc:type
           rdf:resource="http://purl.org/dc/dcmitype/StillImage" />
        <dc:title></dc:title>
      </cc:Work>
    </rdf:RDF>
  </metadata>
  <defs
     id="defs98" />
  <sodipodi:namedview
     pagecolor="#ffffff"
     bordercolor="#666666"
     borderopacity="1"
     objecttolerance="10"
     gridtolerance="10"
     guidetolerance="10"
     inkscape:pageopacity="0"
     inkscape:pageshadow="2"
     inkscape:window-width="1366"
     inkscape:window-height="705"
     id="namedview96"
     showgrid="false"
     inkscape:zoom="1.45664"
     inkscape:cx="146.98818"
     inkscape:cy="206.65813"
     inkscape:window-x="-8"
     inkscape:window-y="-8"
     inkscape:window-maximized="1"
     inkscape:current-layer="svg94" />
  <g
     id="layer102"
     style="fill:#000080;fill-opacity:1;stroke:none">
    <path
       d="M 0,2000 V 0 H 2000 4000 V 2000 4000 H 2000 0 Z m 3698,878 c -3,-7 -17,-14 -31,-16 -21,-3 -27,-9 -27,-28 0,-30 -9,-30 -46,-1 -25,19 -40,22 -131,22 -68,0 -106,-4 -115,-12 -10,-10 5,-13 71,-13 73,0 82,-2 79,-17 -3,-16 -20,-18 -161,-21 -102,-2 -157,1 -157,8 0,5 18,10 40,10 22,0 40,4 40,9 0,10 -299,25 -323,16 -13,-6 -14,-11 -6,-26 9,-18 6,-19 -43,-18 -46,0 -50,2 -30,11 35,17 20,33 -28,30 -32,-3 -41,-1 -38,10 4,10 37,13 144,15 163,2 546,22 553,28 2,3 51,5 109,5 78,0 103,-3 100,-12 z m -878,-78 c 12,-8 11,-10 -7,-10 -12,0 -25,-4 -28,-10 -3,-5 3,-10 14,-10 15,0 20,-8 23,-32 4,-40 25,-49 30,-12 5,41 24,40 34,-3 5,-21 9,-245 9,-499 0,-374 3,-466 14,-487 36,-68 81,-30 81,70 0,55 -2,64 -17,62 -10,-1 -23,-1 -28,0 -7,1 -10,52 -10,140 v 138 l 28,11 c 15,6 27,17 27,26 0,13 -5,14 -26,5 -39,-14 -41,-4 -5,30 26,24 31,36 31,74 0,55 -8,77 -26,77 -9,0 -14,-11 -14,-30 0,-16 -5,-30 -11,-30 -8,0 -10,22 -5,75 3,41 9,108 12,149 4,50 3,76 -5,80 -20,13 -12,31 19,43 33,13 41,43 11,43 -27,0 -51,10 -51,22 0,17 53,58 75,58 13,0 28,7 35,15 14,16 85,21 95,6 8,-14 -31,-23 -65,-16 -23,5 -30,3 -30,-8 0,-8 -2,-27 -5,-43 -3,-16 -1,-36 4,-44 8,-12 13,-12 30,4 16,15 29,17 61,12 33,-5 42,-3 52,14 15,24 41,26 58,5 16,-19 40,-19 40,-1 0,11 9,13 35,9 21,-3 41,-1 50,7 11,9 19,9 28,2 14,-12 85,-10 105,2 19,12 76,-1 102,-24 22,-19 20,-40 -5,-40 -8,0 -22,-11 -31,-25 -14,-22 -15,-43 -9,-150 l 7,-125 h 33 c 41,0 54,-16 23,-25 -61,-19 -73,-55 -63,-197 l 7,-99 29,6 c 36,8 41,-18 7,-36 -29,-16 -47,-39 -48,-61 0,-24 13,-23 35,2 10,11 22,20 27,20 11,0 10,-38 -2,-45 -16,-10 -12,-22 10,-28 30,-8 25,-20 -22,-50 -35,-23 -50,-27 -78,-22 -19,4 -38,9 -42,11 -15,10 -8,33 18,59 30,30 29,69 -2,73 -11,2 -27,-4 -34,-13 -11,-13 -9,-15 9,-15 11,0 21,-2 21,-3 0,-12 -33,-67 -40,-67 -5,0 -41,-15 -82,-34 -142,-65 -164,-74 -217,-90 -66,-19 -61,-20 -61,2 0,38 63,77 170,107 65,17 120,48 120,66 0,18 -73,-3 -152,-42 -94,-47 -164,-55 -154,-16 3,12 6,29 6,38 0,17 125,59 177,59 17,0 33,8 41,20 14,24 38,26 46,5 8,-22 26,-18 26,5 0,20 27,40 56,40 16,0 16,-1 -1,-20 -16,-17 -16,-20 -2,-20 8,0 25,12 36,26 l 20,26 27,-29 c 20,-22 24,-24 19,-8 -4,11 -6,72 -6,135 2,158 1,160 -110,132 -79,-20 -138,-32 -252,-52 -26,-5 -63,-15 -82,-21 l -35,-13 -2,-151 c -4,-219 -1,-333 11,-365 13,-39 -6,-54 -78,-60 l -55,-5 3,-99 c 3,-109 10,-135 46,-178 33,-39 32,-52 -11,-77 -44,-26 -64,-26 -114,-1 -23,12 -40,16 -40,10 0,-6 -15,-17 -33,-25 -19,-8 -39,-20 -46,-29 -10,-12 -8,-16 8,-21 31,-9 26,-33 -11,-55 -38,-23 -66,-25 -103,-8 -24,11 -25,15 -19,57 3,25 10,62 15,81 14,54 12,60 -21,60 -37,0 -52,-27 -25,-46 25,-19 14,-37 -41,-68 l -48,-27 -19,25 c -10,15 -27,26 -36,26 -29,0 -30,8 -10,73 10,34 19,75 19,91 v 29 l -62,-6 c -106,-10 -280,-78 -418,-163 -36,-22 -79,-38 -120,-45 -68,-12 -108,-29 -186,-79 -26,-16 -67,-32 -93,-36 -59,-8 -243,-77 -282,-105 -17,-12 -70,-30 -117,-41 -55,-12 -106,-30 -137,-50 C 907,856 854,831 800,822 694,802 650,775 650,730 c 0,-18 10,-33 30,-48 17,-13 30,-26 30,-30 0,-4 -24,-16 -53,-26 -59,-21 -123,-67 -132,-96 -9,-30 -42,-24 -60,9 -15,31 -54,55 -104,66 -44,10 -47,32 -5,50 30,12 35,19 32,42 -2,22 -11,30 -53,44 l -50,17 -7,299 c -3,164 -8,601 -10,971 l -3,673 95,-3 95,-3 -3,-60 c -4,-80 2,-87 74,-83 l 59,3 3,63 c 2,46 7,62 17,62 16,0 17,-3 19,-65 l 1,-40 97,-3 97,-3 3,43 3,43 45,3 c 42,2 46,0 60,-30 l 15,-33 100,-3 101,-3 17,37 c 16,33 21,36 48,30 17,-3 42,-15 56,-26 27,-21 61,-24 151,-14 40,5 52,11 52,24 0,24 21,39 58,42 23,2 36,-4 52,-25 32,-41 98,-38 173,7 58,35 67,36 67,4 0,-10 12,-24 26,-30 22,-10 28,-10 40,6 10,15 21,17 49,13 28,-5 41,-1 56,14 l 21,21 48,-21 c 27,-12 64,-21 84,-21 30,0 35,4 41,31 11,51 85,66 85,16 0,-31 19,-50 37,-36 8,7 13,34 13,70 0,69 14,76 53,29 32,-38 47,-38 47,-1 0,35 15,49 24,24 18,-45 26,-332 24,-788 -3,-516 3,-675 27,-675 7,0 15,7 19,15 3,8 12,15 21,15 8,0 15,5 15,10 0,6 10,10 23,10 12,0 28,4 36,9 18,12 7,41 -16,41 -48,1 -52,38 -7,58 30,14 31,30 2,34 -33,4 -37,38 -5,38 14,0 28,7 31,16 3,9 6,132 6,274 v 259 l -45,7 c -31,4 -52,14 -65,32 -28,35 -25,42 15,42 42,0 83,18 90,39 8,27 9,215 1,239 -15,46 -26,19 -26,-64 0,-112 -16,-144 -72,-144 -39,0 -35,24 7,49 l 35,20 v 119 c 0,126 -5,142 -48,142 -13,0 -20,4 -17,10 3,6 26,10 50,10 30,0 45,5 49,16 14,36 7,44 -39,44 -25,0 -45,3 -45,8 1,11 106,87 122,87 9,0 13,-14 14,-45 0,-25 4,-59 8,-77 4,-18 3,-40 -3,-52 -8,-14 -6,-109 5,-333 12,-236 14,-371 8,-548 -11,-320 -11,-391 4,-418 l 13,-23 22,28 c 12,15 25,31 31,34 5,4 7,19 4,33 -4,21 1,29 29,46 19,11 43,20 53,20 10,0 22,5 25,10 9,14 -38,13 -52,-1 -16,-16 -66,-2 -59,16 3,9 0,15 -8,15 -20,0 -24,19 -15,60 5,19 6,43 3,52 -4,13 5,20 38,28 24,7 58,23 76,36 32,25 32,26 32,110 0,91 -7,100 -47,62 -33,-30 -52,-11 -27,27 14,22 19,55 22,166 l 5,139 h -52 c -36,0 -51,4 -51,14 0,9 19,15 61,19 34,3 66,10 72,16 13,13 22,317 12,399 -12,96 -25,54 -25,-80 0,-154 -14,-201 -62,-206 -33,-4 -34,2 -8,53 25,50 25,58 -2,70 -41,18 -50,50 -44,170 3,61 9,134 12,163 7,52 7,52 43,52 20,0 43,-5 51,-10 z m -1260,-40 c 32,-4 -12,-5 -105,-2 -89,2 -200,0 -250,-7 -121,-14 -506,-26 -579,-17 -118,15 -35,26 219,29 525,5 661,5 715,-3 z m 1924,-538 c 8,-47 -6,-96 -27,-100 -15,-3 -17,6 -17,66 0,38 3,71 6,75 14,13 33,-7 38,-41 z m -74,9 c 11,-22 14,-90 4,-115 -3,-9 -12,-16 -20,-16 -11,0 -14,18 -14,75 0,75 10,93 30,56 z m -76,-81 c -8,-81 -24,-77 -24,7 0,60 8,89 22,75 6,-6 6,-40 2,-82 z m -137,-33 c 3,-56 1,-83 -9,-94 -11,-14 -14,-13 -19,13 -9,40 -10,129 -3,149 14,34 26,6 31,-68 z m 65,41 c 7,-60 -2,-118 -17,-118 -17,0 -30,127 -14,146 19,23 26,16 31,-28 z m -144,-59 c 3,-61 -10,-109 -30,-109 -18,0 -24,136 -7,156 21,26 34,9 37,-47 z m -357,-11 c 8,-15 10,-60 5,-152 -6,-108 -11,-134 -26,-150 -40,-41 -54,13 -20,79 30,58 34,103 16,169 -8,33 -13,63 -10,68 9,14 23,9 35,-14 z m -172,-36 c 15,-27 2,-292 -15,-319 -22,-34 -37,-29 -28,10 4,17 7,98 6,180 -2,124 0,147 13,147 8,0 19,-8 24,-18 z m 478,-451 c -3,-12 4,-28 19,-42 l 24,-22 -38,-33 c -20,-18 -40,-33 -44,-34 -6,0 -75,44 -86,55 -2,1 16,24 40,49 46,49 95,64 85,27 z"
       id="path5"
       inkscape:connector-curvature="0"
       style="fill:#000080;fill-opacity:1" />
    <path
       d="m 3467,2703 c -15,-15 -33,-18 -128,-16 -104,3 -149,-5 -149,-27 0,-5 55,-8 128,-7 133,2 174,-5 154,-25 -7,-7 -12,-45 -13,-87 -1,-86 -9,-123 -27,-129 -9,-3 -12,20 -10,95 2,54 -1,104 -5,111 -18,28 -27,-4 -27,-96 v -97 l -42,-11 c -24,-6 -51,-14 -60,-18 -15,-7 -16,4 -15,111 2,113 1,118 -18,115 -26,-5 -25,-2 -15,-47 8,-37 5,-79 -16,-193 l -6,-33 144,3 145,3 1,155 c 1,104 -2,164 -11,183 -12,27 -13,27 -30,10 z"
       id="path7"
       inkscape:connector-curvature="0"
       style="fill:#000080;fill-opacity:1" />
    <path
       d="m 3045,2645 c 12,-9 35,-15 55,-13 55,5 41,23 -20,26 -51,2 -54,1 -35,-13 z"
       id="path9"
       inkscape:connector-curvature="0"
       style="fill:#000080;fill-opacity:1" />
    <path
       d="m 2240,2630 c -65,-8 -86,-16 -94,-37 -7,-18 10,-43 29,-43 7,0 24,9 39,21 l 26,20 9,-24 c 5,-13 15,-69 21,-123 17,-137 -5,-214 -61,-214 -22,0 -20,4 15,53 l 21,29 -34,27 c -30,25 -33,31 -26,62 4,19 16,49 26,68 27,45 12,61 -55,61 -85,-1 -87,-6 -85,-168 0,-77 -1,-145 -4,-149 -7,-11 -77,-4 -77,8 0,5 9,14 20,21 11,7 20,20 20,29 0,9 -9,24 -20,34 -29,27 -27,86 6,124 15,18 24,40 22,53 -3,21 -9,23 -70,26 -101,4 -108,-2 -108,-102 0,-45 5,-109 12,-141 l 12,-59 -29,-20 c -16,-12 -40,-32 -53,-46 -30,-32 -51,-19 -74,44 -14,41 -15,48 -2,53 8,3 26,-5 39,-17 19,-18 27,-20 38,-11 13,10 13,17 0,53 -12,36 -12,53 3,140 9,54 14,102 10,105 -3,4 -39,-1 -79,-10 -39,-10 -83,-17 -96,-17 -17,0 -22,-4 -17,-16 3,-8 -1,-47 -10,-86 -12,-52 -14,-92 -10,-149 7,-76 7,-78 -18,-94 -16,-11 -38,-16 -56,-13 -30,4 -30,4 -14,-19 12,-19 13,-27 4,-39 -7,-7 -16,-11 -22,-8 -7,5 -58,101 -58,111 0,2 29,3 65,3 76,0 92,16 56,54 -18,19 -20,28 -12,49 6,14 13,56 16,94 3,37 7,77 8,88 2,18 -4,20 -58,19 -33,-1 -93,-5 -132,-9 l -73,-8 -10,-37 c -6,-21 -9,-91 -8,-156 2,-66 -1,-136 -5,-156 -7,-32 -5,-38 8,-38 9,0 15,-5 13,-12 -7,-20 -25,-20 -31,1 -3,14 -15,21 -38,23 -44,4 -49,30 -9,45 35,13 43,53 11,53 -10,0 -22,7 -25,16 -10,26 5,117 22,137 8,9 17,42 20,72 l 5,55 -34,-2 c -25,-2 -34,1 -37,15 -3,13 3,17 25,17 16,0 34,5 41,12 9,9 12,9 12,0 0,-23 31,-12 41,14 9,26 10,26 29,9 18,-16 21,-16 44,-2 23,15 25,15 40,-6 14,-20 16,-21 29,-5 12,16 16,16 59,1 38,-14 50,-15 76,-4 18,8 32,20 32,27 0,17 22,18 38,2 8,-8 15,-8 25,0 10,8 16,9 24,1 8,-8 20,-5 42,10 27,20 32,20 37,7 8,-21 24,-20 40,2 10,13 15,14 25,5 10,-10 16,-9 31,4 17,15 19,15 33,-3 14,-19 14,-19 28,0 14,19 15,19 26,-3 12,-22 13,-22 32,-5 17,16 22,16 29,4 8,-12 13,-13 28,-3 15,9 22,9 31,0 9,-9 14,-8 21,3 16,25 11,40 -17,51 -33,13 -186,7 -205,-8 -7,-5 -62,-11 -123,-12 -160,-2 -361,-10 -510,-21 -71,-5 -202,-14 -290,-20 -293,-19 -330,-22 -338,-27 -4,-2 -7,-15 -7,-29 0,-35 -29,-31 -36,6 -7,32 -15,36 -44,20 -11,-6 -34,-11 -52,-13 -31,-2 -33,-5 -33,-42 v -40 l 62,-3 c 94,-4 94,-40 1,-44 l -63,-3 2,-235 c 1,-129 6,-255 11,-280 9,-49 12,-50 82,-33 l 35,9 3,237 c 1,141 6,237 12,237 22,0 28,-48 29,-266 1,-255 -1,-262 -57,-249 -21,4 -31,2 -35,-9 -4,-9 -14,-12 -26,-9 -15,4 -21,1 -21,-11 0,-18 30,-22 47,-5 5,5 30,9 54,7 38,-3 44,-6 41,-23 -16,-96 -21,-87 50,-89 55,-1 46,-21 -10,-21 h -47 l 2,-170 c 1,-93 5,-190 9,-214 l 6,-44 -37,23 c -29,18 -41,21 -60,12 -13,-6 -26,-8 -29,-5 -11,12 17,33 44,33 35,0 52,21 48,57 -3,24 -8,28 -40,31 -21,2 -38,7 -38,11 0,16 25,31 52,31 26,0 28,3 28,40 0,63 -21,130 -41,130 -10,0 -21,-4 -24,-10 -11,-18 -45,-11 -45,9 0,16 8,20 43,23 l 42,3 v 65 65 h -37 c -45,0 -54,-18 -13,-25 27,-5 28,-6 11,-22 -10,-10 -32,-18 -50,-18 h -32 l 4,-62 c 5,-88 5,-88 57,-88 58,0 57,-13 -3,-32 l -47,-16 3,-178 c 1,-114 6,-178 13,-176 49,12 79,12 79,-1 0,-10 -18,-19 -51,-27 -40,-10 -49,-16 -44,-29 4,-9 12,-105 18,-213 6,-109 15,-198 20,-198 5,0 26,9 46,19 20,11 44,22 54,25 15,5 17,23 17,200 v 194 l 53,17 c 28,9 61,20 72,24 11,5 33,14 49,20 16,7 31,9 34,7 10,-10 -19,-34 -48,-40 -35,-6 -39,-22 -9,-31 28,-9 68,20 92,66 11,23 23,33 36,31 10,-2 21,4 24,12 3,8 14,12 25,10 10,-3 51,10 91,30 97,47 111,51 111,32 0,-22 23,-20 38,4 17,27 74,54 157,74 79,19 155,45 169,58 6,4 22,-4 38,-19 25,-23 30,-25 41,-12 10,13 31,21 115,45 6,2 12,14 13,26 0,33 101,85 119,62 11,-12 14,-12 25,2 6,9 18,15 26,12 8,-3 19,2 24,9 6,8 30,23 53,33 38,17 42,17 51,3 10,-18 16,-16 81,27 25,16 61,38 80,47 19,10 37,21 40,25 3,3 19,8 35,10 l 30,3 2,177 c 1,162 -4,204 -24,184 -3,-3 -5,-77 -4,-166 2,-136 0,-160 -13,-160 -8,0 -22,-10 -30,-22 -15,-21 -16,-21 -36,-3 l -20,18 22,24 c 20,21 22,34 22,128 l 1,105 h -27 c -41,0 -35,26 7,34 27,5 35,12 35,28 0,14 -5,18 -16,14 -8,-3 -31,1 -51,9 -55,23 -130,18 -229,-15 -67,-22 -106,-30 -159,-29 -78,1 -71,5 70,34 44,9 94,21 110,26 17,5 95,25 175,44 80,20 149,40 153,44 5,5 9,93 9,196 1,171 2,189 20,207 17,17 18,24 8,53 -6,19 -15,36 -18,38 -4,1 -32,0 -62,-3 z M 1050,2468 c 81,4 100,2 100,-9 0,-11 -18,-14 -78,-13 -42,0 -83,-2 -89,-4 -10,-3 -13,-47 -13,-176 0,-224 -17,-264 -107,-241 -34,8 -26,38 12,45 23,4 31,11 33,30 2,14 8,29 13,35 18,19 8,27 -25,21 -41,-8 -55,7 -31,34 13,15 16,33 13,86 -2,43 1,68 8,71 6,2 14,-6 17,-18 3,-11 10,-18 16,-14 14,8 14,35 1,35 -20,0 -22,31 -5,50 25,28 4,33 -80,19 -107,-18 -196,-22 -208,-10 -20,20 4,26 106,28 117,1 173,16 181,47 l 6,21 14,-21 c 14,-20 22,-21 116,-16 z m 98,-285 c -2,-11 -14,-19 -31,-21 -29,-4 -35,6 -15,26 19,19 50,15 46,-5 z m -358,-53 c -15,-27 -26,-32 -39,-16 -9,11 -7,17 10,30 27,19 43,11 29,-14 z m 391,-57 c 13,-20 16,-34 10,-38 -14,-8 -61,39 -61,60 0,26 29,13 51,-22 z m -345,-51 c 28,-50 29,-52 9,-52 -14,0 -36,34 -50,79 -12,38 14,21 41,-27 z m 854,-42 c -20,-13 -40,-13 -40,0 0,6 12,10 28,10 21,0 24,-2 12,-10 z m 402,-41 c 4,-19 6,-82 3,-141 l -4,-108 -36,-31 c -20,-17 -39,-29 -42,-25 -4,3 -1,35 5,70 7,35 9,78 6,95 -5,24 -2,35 11,45 15,11 17,22 12,63 -9,75 29,103 45,32 z m -582,12 c 0,-4 -19,-11 -42,-14 -24,-3 -74,-13 -113,-22 -152,-37 -167,-30 -37,16 75,27 192,39 192,20 z m 458,-28 c -4,-23 -58,-31 -58,-9 0,15 14,24 43,25 12,1 17,-5 15,-16 z m -88,-148 c 0,-85 -4,-155 -8,-155 -5,0 -29,-13 -53,-30 -50,-33 -69,-37 -69,-14 0,9 -9,29 -20,44 -26,37 -11,47 41,30 35,-12 42,-11 56,3 15,15 15,18 -2,36 -17,20 -17,22 4,70 25,59 26,75 5,95 -19,20 -51,20 -88,1 -44,-23 -76,-20 -76,9 0,13 6,29 14,35 13,11 102,27 169,30 l 27,1 z m -670,115 c 8,-5 12,-10 8,-10 -3,0 -42,-7 -85,-15 -95,-18 -98,-18 -81,-2 40,36 122,50 158,27 z m 408,-167 c -3,-98 -9,-186 -13,-195 -5,-13 -18,-18 -46,-18 -32,0 -39,-3 -39,-20 0,-34 -24,-21 -57,31 -28,43 -30,51 -16,56 11,4 24,-3 37,-20 12,-15 24,-27 27,-27 3,0 12,18 19,40 11,34 11,44 0,65 -12,22 -11,28 4,43 14,15 18,15 26,2 17,-27 23,-1 21,86 -2,64 2,92 14,110 8,13 18,24 22,24 3,0 3,-80 1,-177 z m -624,119 c 3,-5 -23,-14 -57,-21 -34,-6 -78,-16 -97,-21 -59,-15 -140,-23 -140,-14 0,20 44,34 137,45 54,6 100,13 102,15 8,7 50,4 55,-4 z m 312,-29 c 4,-10 9,-88 12,-173 2,-85 8,-163 13,-173 8,-14 5,-19 -16,-27 -32,-12 -95,-13 -114,-1 -18,12 -10,54 30,149 21,51 29,86 27,115 -3,41 -4,42 -40,45 -29,2 -38,8 -38,21 0,16 -4,17 -35,7 -23,-7 -35,-17 -35,-28 0,-13 -8,-18 -29,-18 -17,0 -33,-4 -36,-10 -3,-5 -15,-10 -26,-10 -16,0 -19,4 -14,23 11,35 53,64 114,76 50,10 74,13 157,19 12,1 25,-6 30,-15 z m 182,5 c -7,-21 -50,-38 -95,-38 -72,0 -52,30 27,41 70,10 72,10 68,-3 z m -608,-83 c 18,-9 31,-11 35,-5 10,16 41,12 59,-9 13,-14 14,-24 6,-45 -5,-15 -10,-92 -10,-170 0,-143 0,-143 25,-154 29,-13 31,-29 9,-60 -20,-29 -69,-31 -61,-2 5,20 -7,28 -17,11 -4,-5 -18,-5 -36,2 -37,14 -49,3 -25,-23 10,-11 15,-23 11,-27 -12,-12 -40,12 -60,52 -19,37 -19,39 -2,49 58,35 61,41 57,113 -8,149 -10,138 27,135 32,-2 33,-1 30,30 -3,32 -5,33 -47,33 -45,0 -68,19 -37,31 9,3 16,13 16,21 0,11 -5,13 -17,8 -19,-8 -123,-35 -135,-35 -17,0 -7,20 15,31 53,29 117,35 157,14 z m -66,-326 c 9,-8 -33,-29 -59,-29 -23,0 -29,22 -10,37 18,13 51,9 69,-8 z"
       id="path11"
       inkscape:connector-curvature="0"
       style="fill:#000080;fill-opacity:1" />
    <path
       d="m 906,2244 c -7,-19 2,-37 15,-29 12,8 12,45 0,45 -5,0 -12,-7 -15,-16 z"
       id="path13"
       inkscape:connector-curvature="0"
       style="fill:#000080;fill-opacity:1" />
    <path
       d="m 910,1551 c -15,-28 -12,-51 5,-51 10,0 15,11 15,35 0,40 -5,43 -20,16 z"
       id="path15"
       inkscape:connector-curvature="0"
       style="fill:#000080;fill-opacity:1" />
    <path
       d="m 3320,2604 c -7,-17 -7,-47 1,-90 19,-112 49,-56 34,64 -7,57 -20,67 -35,26 z"
       id="path17"
       inkscape:connector-curvature="0"
       style="fill:#000080;fill-opacity:1" />
    <path
       d="m 3142,2589 c -5,-12 -2,-58 5,-102 12,-75 11,-83 -5,-99 -9,-9 -33,-18 -52,-20 -34,-3 -35,-2 -38,37 -2,21 -1,55 3,74 8,42 21,27 31,-37 9,-61 34,-38 34,32 0,62 -10,80 -38,72 -16,-5 -24,-1 -36,21 -15,27 -15,25 -18,-57 -2,-82 0,-192 5,-196 4,-4 125,24 137,31 6,4 9,14 6,22 -4,9 -2,21 3,27 8,10 16,128 13,189 -2,34 -38,38 -50,6 z"
       id="path19"
       inkscape:connector-curvature="0"
       style="fill:#000080;fill-opacity:1" />
    <path
       d="m 1250,2300 c 0,-5 7,-10 15,-10 8,0 15,5 15,10 0,6 -7,10 -15,10 -8,0 -15,-4 -15,-10 z"
       id="path21"
       inkscape:connector-curvature="0"
       style="fill:#000080;fill-opacity:1" />
    <path
       d="m 3250,2300 c 0,-5 7,-10 15,-10 8,0 15,5 15,10 0,6 -7,10 -15,10 -8,0 -15,-4 -15,-10 z"
       id="path23"
       inkscape:connector-curvature="0"
       style="fill:#000080;fill-opacity:1" />
    <path
       d="m 3030,2260 c 0,-5 9,-10 21,-10 11,0 17,5 14,10 -3,6 -13,10 -21,10 -8,0 -14,-4 -14,-10 z"
       id="path25"
       inkscape:connector-curvature="0"
       style="fill:#000080;fill-opacity:1" />
    <path
       d="m 2555,2150 c 3,-5 17,-10 31,-10 13,0 24,5 24,10 0,6 -14,10 -31,10 -17,0 -28,-4 -24,-10 z"
       id="path27"
       inkscape:connector-curvature="0"
       style="fill:#000080;fill-opacity:1" />
    <path
       d="m 3393,1963 c -7,-2 -13,-9 -13,-15 0,-14 43,-6 48,10 4,12 -12,15 -35,5 z"
       id="path29"
       inkscape:connector-curvature="0"
       style="fill:#000080;fill-opacity:1" />
    <path
       d="m 3165,1930 c 3,-5 13,-10 21,-10 8,0 14,5 14,10 0,6 -9,10 -21,10 -11,0 -17,-4 -14,-10 z"
       id="path31"
       inkscape:connector-curvature="0"
       style="fill:#000080;fill-opacity:1" />
    <path
       d="m 3100,1910 c 0,-5 9,-10 21,-10 11,0 17,5 14,10 -3,6 -13,10 -21,10 -8,0 -14,-4 -14,-10 z"
       id="path33"
       inkscape:connector-curvature="0"
       style="fill:#000080;fill-opacity:1" />
    <path
       d="m 2273,1580 c -18,-7 -23,-17 -23,-46 0,-35 1,-36 18,-21 14,13 21,14 30,5 6,-6 15,-9 19,-5 3,4 -2,13 -12,21 -12,9 -15,15 -7,20 13,8 16,36 5,35 -5,0 -18,-4 -30,-9 z"
       id="path35"
       inkscape:connector-curvature="0"
       style="fill:#000080;fill-opacity:1" />
    <path
       d="m 2810,1509 c -19,-12 -37,-23 -40,-26 -6,-6 22,-23 38,-23 17,0 52,37 52,55 0,20 -8,19 -50,-6 z"
       id="path37"
       inkscape:connector-curvature="0"
       style="fill:#000080;fill-opacity:1" />
    <path
       d="m 2089,1469 c -27,-27 -19,-45 17,-41 36,4 54,19 54,43 0,26 -44,25 -71,-2 z"
       id="path39"
       inkscape:connector-curvature="0"
       style="fill:#000080;fill-opacity:1" />
    <path
       d="m 1917,1443 c -12,-11 -8,-23 8,-23 9,0 15,-9 15,-24 0,-37 21,-49 58,-31 35,18 49,49 32,70 -22,27 -40,17 -40,-20 0,-19 -4,-35 -10,-35 -5,0 -10,6 -10,13 -1,12 -34,57 -42,57 -3,0 -8,-3 -11,-7 z"
       id="path41"
       inkscape:connector-curvature="0"
       style="fill:#000080;fill-opacity:1" />
    <path
       d="m 1880,1365 c 0,-28 15,-34 24,-9 10,25 7,34 -9,34 -9,0 -15,-9 -15,-25 z"
       id="path43"
       inkscape:connector-curvature="0"
       style="fill:#000080;fill-opacity:1" />
    <path
       d="m 1810,1361 c -8,-4 -28,-14 -45,-22 -18,-9 -31,-24 -33,-38 -3,-21 -1,-23 25,-17 40,10 77,39 81,65 4,22 -3,25 -28,12 z"
       id="path45"
       inkscape:connector-curvature="0"
       style="fill:#000080;fill-opacity:1" />
    <path
       d="m 1510,1350 c 0,-5 7,-10 15,-10 8,0 15,5 15,10 0,6 -7,10 -15,10 -8,0 -15,-4 -15,-10 z"
       id="path47"
       inkscape:connector-curvature="0"
       style="fill:#000080;fill-opacity:1" />
    <path
       d="m 1361,1300 c -13,-11 -29,-20 -36,-20 -7,0 -11,-9 -8,-22 4,-19 -2,-25 -36,-35 -22,-7 -48,-13 -56,-13 -8,0 -15,-4 -15,-9 0,-17 21,-24 43,-13 12,5 39,17 59,26 36,16 58,40 55,61 -1,6 11,11 26,13 16,2 27,8 24,15 -6,19 -30,18 -56,-3 z"
       id="path49"
       inkscape:connector-curvature="0"
       style="fill:#000080;fill-opacity:1" />
    <path
       d="m 1520,1300 c 0,-5 7,-10 15,-10 8,0 15,5 15,10 0,6 -7,10 -15,10 -8,0 -15,-4 -15,-10 z"
       id="path51"
       inkscape:connector-curvature="0"
       style="fill:#000080;fill-opacity:1" />
    <path
       d="m 1623,1300 c -12,-5 -29,-23 -38,-41 -12,-23 -20,-28 -28,-20 -16,16 -56,14 -73,-4 -9,-8 -28,-15 -43,-15 -36,0 -110,-26 -132,-46 -10,-9 -23,-13 -28,-9 -6,3 -20,3 -31,0 -18,-6 -20,-12 -14,-43 3,-20 10,-41 15,-46 13,-15 49,24 49,53 1,24 2,24 14,8 10,-13 21,-16 47,-11 53,10 109,42 121,69 12,28 28,33 28,10 0,-19 3,-19 72,2 48,15 57,21 52,37 -6,17 -2,18 35,12 40,-6 41,-6 41,24 0,27 -3,30 -32,29 -18,0 -43,-4 -55,-9 z"
       id="path53"
       inkscape:connector-curvature="0"
       style="fill:#000080;fill-opacity:1" />
    <path
       d="m 1470,1285 c 0,-8 7,-15 16,-15 14,0 14,3 4,15 -7,8 -14,15 -16,15 -2,0 -4,-7 -4,-15 z"
       id="path55"
       inkscape:connector-curvature="0"
       style="fill:#000080;fill-opacity:1" />
    <path
       d="m 2466,1292 c -3,-6 -1,-14 5,-17 15,-10 25,3 12,16 -7,7 -13,7 -17,1 z"
       id="path57"
       inkscape:connector-curvature="0"
       style="fill:#000080;fill-opacity:1" />
    <path
       d="m 1250,1260 c 0,-5 7,-10 15,-10 8,0 15,5 15,10 0,6 -7,10 -15,10 -8,0 -15,-4 -15,-10 z"
       id="path59"
       inkscape:connector-curvature="0"
       style="fill:#000080;fill-opacity:1" />
    <path
       d="m 1410,1260 c 0,-5 9,-10 21,-10 11,0 17,5 14,10 -3,6 -13,10 -21,10 -8,0 -14,-4 -14,-10 z"
       id="path61"
       inkscape:connector-curvature="0"
       style="fill:#000080;fill-opacity:1" />
    <path
       d="m 1065,1190 c 3,-5 13,-10 21,-10 8,0 14,5 14,10 0,6 -9,10 -21,10 -11,0 -17,-4 -14,-10 z"
       id="path63"
       inkscape:connector-curvature="0"
       style="fill:#000080;fill-opacity:1" />
    <path
       d="m 1016,1182 c -3,-6 -1,-14 5,-17 15,-10 25,3 12,16 -7,7 -13,7 -17,1 z"
       id="path65"
       inkscape:connector-curvature="0"
       style="fill:#000080;fill-opacity:1" />
    <path
       d="m 1155,1180 c -9,-15 -1,-23 21,-18 15,3 16,4 1,16 -11,9 -17,10 -22,2 z"
       id="path67"
       inkscape:connector-curvature="0"
       style="fill:#000080;fill-opacity:1" />
    <path
       d="m 950,1155 c 0,-8 7,-15 15,-15 8,0 15,4 15,9 0,5 -7,11 -15,15 -9,3 -15,0 -15,-9 z"
       id="path69"
       inkscape:connector-curvature="0"
       style="fill:#000080;fill-opacity:1" />
    <path
       d="m 1100,1150 c 0,-5 7,-10 15,-10 8,0 15,5 15,10 0,6 -7,10 -15,10 -8,0 -15,-4 -15,-10 z"
       id="path71"
       inkscape:connector-curvature="0"
       style="fill:#000080;fill-opacity:1" />
    <path
       d="m 890,1130 c 0,-5 9,-10 21,-10 11,0 17,5 14,10 -3,6 -13,10 -21,10 -8,0 -14,-4 -14,-10 z"
       id="path73"
       inkscape:connector-curvature="0"
       style="fill:#000080;fill-opacity:1" />
    <path
       d="m 1030,1136 c 0,-2 7,-9 15,-16 12,-10 15,-10 15,4 0,9 -7,16 -15,16 -8,0 -15,-2 -15,-4 z"
       id="path75"
       inkscape:connector-curvature="0"
       style="fill:#000080;fill-opacity:1" />
    <path
       d="m 1167,1133 c -2,-4 -2,-25 1,-46 4,-32 8,-38 26,-35 17,2 21,10 21,43 0,33 -4,41 -22,43 -11,2 -23,0 -26,-5 z"
       id="path77"
       inkscape:connector-curvature="0"
       style="fill:#000080;fill-opacity:1" />
    <path
       d="m 1070,1095 c -58,-31 -80,-38 -106,-36 -27,3 -66,-44 -62,-73 2,-16 10,-21 33,-21 27,0 32,5 44,43 14,47 34,51 39,9 2,-15 7,-27 11,-27 15,0 31,25 31,47 0,13 5,23 10,23 6,0 10,-11 10,-25 0,-33 15,-32 51,4 32,32 38,65 13,75 -22,9 -24,8 -74,-19 z"
       id="path79"
       inkscape:connector-curvature="0"
       style="fill:#000080;fill-opacity:1" />
    <path
       d="m 716,1073 c -11,-11 -6,-23 9,-23 8,0 15,4 15,9 0,13 -16,22 -24,14 z"
       id="path81"
       inkscape:connector-curvature="0"
       style="fill:#000080;fill-opacity:1" />
    <path
       d="m 862,1069 c 2,-7 10,-15 17,-17 8,-3 12,1 9,9 -2,7 -10,15 -17,17 -8,3 -12,-1 -9,-9 z"
       id="path83"
       inkscape:connector-curvature="0"
       style="fill:#000080;fill-opacity:1" />
    <path
       d="m 730,1020 c 0,-5 7,-10 15,-10 8,0 15,5 15,10 0,6 -7,10 -15,10 -8,0 -15,-4 -15,-10 z"
       id="path85"
       inkscape:connector-curvature="0"
       style="fill:#000080;fill-opacity:1" />
    <path
       d="m 775,984 c -27,-13 -67,-27 -87,-31 -37,-5 -38,-7 -38,-49 0,-23 4,-45 9,-48 4,-3 32,3 62,13 46,17 54,23 54,45 1,36 9,40 50,26 44,-14 68,0 63,39 -4,36 -48,38 -113,5 z"
       id="path87"
       inkscape:connector-curvature="0"
       style="fill:#000080;fill-opacity:1" />
    <path
       d="m 906,922 c -3,-6 -1,-14 5,-17 15,-10 25,3 12,16 -7,7 -13,7 -17,1 z"
       id="path89"
       inkscape:connector-curvature="0"
       style="fill:#000080;fill-opacity:1" />
    <path
       d="m 840,890 c 0,-5 7,-10 15,-10 8,0 15,5 15,10 0,6 -7,10 -15,10 -8,0 -15,-4 -15,-10 z"
       id="path91"
       inkscape:connector-curvature="0"
       style="fill:#000080;fill-opacity:1" />
  </g>
  <path
     style="opacity:1;fill:#ffffff;fill-opacity:0;stroke:none;stroke-width:1.98493695;stroke-linecap:round;stroke-linejoin:round;stroke-miterlimit:4;stroke-dasharray:none;stroke-opacity:0.66834172"
     d="M -315.35302,248.74335 V -56.410989 h 497.37753 497.37754 v 44.279987 44.279988 H 528.71279 378.02353 V 232.26707 432.38515 h 150.68926 150.68926 v 60.75627 60.75626 H 182.02451 -315.35302 Z"
     id="path5139"
     inkscape:connector-curvature="0"
     transform="scale(10)" />
  <path
     style="opacity:1;fill:#ffffff;fill-opacity:0;stroke:none;stroke-width:1.98493695;stroke-linecap:round;stroke-linejoin:round;stroke-miterlimit:4;stroke-dasharray:none;stroke-opacity:0.66834172"
     d="M -315.35302,248.74335 V -56.410989 h 497.37753 497.37754 v 44.279987 44.279988 H 528.71279 378.02353 V 232.26707 432.38515 h 150.68926 150.68926 v 60.75627 60.75626 H 182.02451 -315.35302 Z"
     id="path5141"
     inkscape:connector-curvature="0"
     transform="scale(10)" />
  <g
     inkscape:groupmode="layer"
     id="layer1"
     inkscape:label="Layer 1" />
</svg>
